<svg width="22" height="26" viewBox="0 0 22 26" fill="none" xmlns="http://www.w3.org/2000/svg">
<path d="M11.0747 20.186C11.0747 19.2686 11.216 18.5566 11.4987 18.05C11.7814 17.5433 12.288 17.29 13.0187 17.29C13.7494 17.29 14.256 17.5433 14.5387 18.05C14.8214 18.5566 14.9627 19.2686 14.9627 20.186C14.9627 21.1193 14.8214 21.842 14.5387 22.354C14.256 22.866 13.7494 23.122 13.0187 23.122C12.2827 23.122 11.7734 22.866 11.4907 22.354C11.2134 21.842 11.0747 21.1193 11.0747 20.186ZM14.4107 20.186C14.4107 19.69 14.376 19.2713 14.3067 18.93C14.2374 18.5886 14.1014 18.314 13.8987 18.106C13.696 17.898 13.4027 17.794 13.0187 17.794C12.6347 17.794 12.3414 17.898 12.1387 18.106C11.936 18.314 11.8 18.5886 11.7307 18.93C11.6614 19.2713 11.6267 19.69 11.6267 20.186C11.6267 20.698 11.6614 21.1273 11.7307 21.474C11.8 21.8153 11.936 22.09 12.1387 22.298C12.3414 22.506 12.6347 22.61 13.0187 22.61C13.4027 22.61 13.696 22.506 13.8987 22.298C14.1014 22.09 14.2374 21.8153 14.3067 21.474C14.376 21.1273 14.4107 20.698 14.4107 20.186Z" fill="white"/>
<path d="M4.65816 12.7719V12.2679H6.01816V18.0039H5.45016V12.7719H4.65816Z" fill="white"/>
<path d="M6.95444 18.3202L7.17844 18.7282L6.05044 19.2402L7.18644 19.7522L6.95444 20.1682L5.92244 19.4802L6.01844 20.7362H5.55444L5.64244 19.4802L4.61044 20.1762L4.37044 19.7522L5.50644 19.2402L4.37844 18.7362L4.61044 18.3202L5.65044 19.0162L5.55444 17.7602H6.02644L5.92244 19.0162L6.95444 18.3202Z" fill="white"/>
<path d="M20.2209 19.2907L20.0259 20.2157H20.7409V20.5257H19.9609L19.7309 21.5957H19.3959L19.6259 20.5257H18.5159L18.2859 21.5957H17.9509L18.1809 20.5257H17.3859V20.2157H18.2459L18.4409 19.2907H17.6609V18.9807H18.5109L18.7409 17.8957H19.0759L18.8459 18.9807H19.9559L20.1859 17.8957H20.5209L20.2909 18.9807H21.0159V19.2907H20.2209ZM19.8859 19.2907H18.7759L18.5809 20.2157H19.6909L19.8859 19.2907Z" fill="white"/>
<path d="M10.9627 17.5639C11.944 16.8279 12.7014 16.1692 13.2347 15.5879C13.7734 15.0012 14.0427 14.4279 14.0427 13.8679C14.0427 13.4999 13.9494 13.2066 13.7627 12.9879C13.5814 12.7639 13.2827 12.6519 12.8667 12.6519C12.4614 12.6519 12.1467 12.7799 11.9227 13.0359C11.704 13.2866 11.5814 13.6226 11.5547 14.0439H11.0107C11.0427 13.4519 11.224 12.9932 11.5547 12.6679C11.8907 12.3372 12.328 12.1719 12.8667 12.1719C13.384 12.1719 13.8027 12.3186 14.1227 12.6119C14.4427 12.8999 14.6027 13.3106 14.6027 13.8439C14.6027 14.4892 14.3334 15.1159 13.7947 15.7239C13.2614 16.3266 12.6027 16.9159 11.8187 17.4919H14.7787V17.9639H10.9627V17.5639Z" fill="white"/>
<path d="M17.7069 13.7319C17.7443 13.2466 17.9309 12.8652 18.2669 12.5879C18.6083 12.3052 19.0483 12.1639 19.5869 12.1639C19.9443 12.1639 20.2509 12.2279 20.5069 12.3559C20.7629 12.4839 20.9549 12.6599 21.0829 12.8839C21.2163 13.1026 21.2829 13.3506 21.2829 13.6279C21.2829 13.9639 21.1843 14.2546 20.9869 14.4999C20.7896 14.7452 20.5096 14.8972 20.1469 14.9559V14.9959C20.5256 15.0706 20.8269 15.2359 21.0509 15.4919C21.2749 15.7426 21.3869 16.0732 21.3869 16.4839C21.3869 16.9426 21.2323 17.3186 20.9229 17.6119C20.6189 17.8999 20.1763 18.0439 19.5949 18.0439C19.0403 18.0439 18.5843 17.8999 18.2269 17.6119C17.8696 17.3186 17.6643 16.9052 17.6109 16.3719H18.1549C18.2029 16.7292 18.3523 17.0199 18.6029 17.2439C18.8536 17.4626 19.1843 17.5719 19.5949 17.5719C20.0003 17.5719 20.3096 17.4652 20.5229 17.2519C20.7416 17.0386 20.8509 16.7666 20.8509 16.4359C20.8509 15.6252 20.2669 15.2199 19.0989 15.2199H18.9229V14.7479H19.1069C20.1949 14.7479 20.7389 14.3932 20.7389 13.6839C20.7389 13.3746 20.6376 13.1266 20.4349 12.9399C20.2323 12.7479 19.9443 12.6519 19.5709 12.6519C19.2083 12.6519 18.9069 12.7479 18.6669 12.9399C18.4323 13.1266 18.2936 13.3906 18.2509 13.7319H17.7069Z" fill="white"/>
<path d="M3.69174 12.3723V11.8953L6.96774 7.48534H7.71474V11.8233H8.67774V12.3723H7.71474V13.9023H7.09374V12.3723H3.69174ZM7.12074 8.17834L4.42074 11.8233H7.12074V8.17834Z" fill="white"/>
<path d="M14.695 7.98934H11.401V10.2933C11.551 10.0833 11.77 9.91234 12.058 9.78034C12.346 9.64234 12.658 9.57334 12.994 9.57334C13.486 9.57334 13.888 9.67534 14.2 9.87934C14.512 10.0773 14.737 10.3383 14.875 10.6623C15.013 10.9803 15.082 11.3223 15.082 11.6883C15.082 12.1083 15.001 12.4893 14.839 12.8313C14.683 13.1673 14.44 13.4343 14.11 13.6323C13.786 13.8303 13.381 13.9293 12.895 13.9293C12.277 13.9293 11.776 13.7703 11.392 13.4523C11.008 13.1283 10.774 12.6933 10.69 12.1473H11.311C11.389 12.5433 11.569 12.8493 11.851 13.0653C12.133 13.2813 12.481 13.3893 12.895 13.3893C13.417 13.3893 13.81 13.2363 14.074 12.9303C14.344 12.6183 14.479 12.2073 14.479 11.6973C14.479 11.1993 14.344 10.8123 14.074 10.5363C13.804 10.2543 13.417 10.1133 12.913 10.1133C12.565 10.1133 12.259 10.1943 11.995 10.3563C11.731 10.5183 11.536 10.7373 11.41 11.0133H10.816V7.44034H14.695V7.98934Z" fill="white"/>
<path d="M20.9912 9.02434C20.8592 8.24434 20.4062 7.85434 19.6322 7.85434C19.0442 7.85434 18.6032 8.08234 18.3092 8.53834C18.0152 8.99434 17.8802 9.74134 17.9042 10.7793C18.0242 10.4193 18.2522 10.1373 18.5882 9.93334C18.9302 9.72334 19.3202 9.61834 19.7582 9.61834C20.3882 9.61834 20.8862 9.81334 21.2522 10.2033C21.6242 10.5873 21.8102 11.1183 21.8102 11.7963C21.8102 12.1923 21.7322 12.5523 21.5762 12.8763C21.4262 13.1943 21.1922 13.4493 20.8742 13.6413C20.5622 13.8333 20.1722 13.9293 19.7042 13.9293C18.8102 13.9293 18.1922 13.6443 17.8502 13.0743C17.5142 12.5043 17.3462 11.6973 17.3462 10.6533C17.3462 8.43334 18.1082 7.32334 19.6322 7.32334C20.2082 7.32334 20.6612 7.48234 20.9912 7.80034C21.3212 8.11234 21.5162 8.52034 21.5762 9.02434H20.9912ZM19.6412 10.1583C19.3592 10.1583 19.0922 10.2153 18.8402 10.3293C18.5882 10.4433 18.3812 10.6173 18.2192 10.8513C18.0632 11.0793 17.9852 11.3613 17.9852 11.6973C17.9852 12.1833 18.1292 12.5883 18.4172 12.9123C18.7052 13.2363 19.1252 13.3983 19.6772 13.3983C20.1392 13.3983 20.5082 13.2573 20.7842 12.9753C21.0602 12.6933 21.1982 12.3093 21.1982 11.8233C21.1982 11.3013 21.0632 10.8933 20.7932 10.5993C20.5232 10.3053 20.1392 10.1583 19.6412 10.1583Z" fill="white"/>
<path d="M8.36216 2.5038L6.13016 7.7998H5.56216L7.81816 2.5518H4.61816V2.0718H8.36216V2.5038Z" fill="white"/>
<path d="M11.674 4.8238C11.3433 4.71714 11.09 4.54914 10.914 4.3198C10.7433 4.09047 10.658 3.81314 10.658 3.4878C10.658 3.1998 10.73 2.9438 10.874 2.7198C11.0233 2.49047 11.2393 2.3118 11.522 2.1838C11.8047 2.05047 12.1433 1.9838 12.538 1.9838C12.9327 1.9838 13.2713 2.05047 13.554 2.1838C13.8367 2.3118 14.05 2.49047 14.194 2.7198C14.3433 2.9438 14.418 3.1998 14.418 3.4878C14.418 3.8078 14.33 4.08514 14.154 4.3198C13.9833 4.55447 13.7327 4.72247 13.402 4.8238C13.7647 4.91447 14.05 5.0878 14.258 5.3438C14.466 5.5998 14.57 5.9118 14.57 6.2798C14.57 6.62114 14.4847 6.9198 14.314 7.1758C14.1487 7.42647 13.9113 7.62114 13.602 7.7598C13.298 7.89847 12.9433 7.9678 12.538 7.9678C12.1327 7.9678 11.7753 7.89847 11.466 7.7598C11.162 7.62114 10.9247 7.42647 10.754 7.1758C10.5887 6.9198 10.506 6.62114 10.506 6.2798C10.506 5.9118 10.61 5.5998 10.818 5.3438C11.026 5.0878 11.3113 4.91447 11.674 4.8238ZM13.874 3.5518C13.874 3.1998 13.754 2.9278 13.514 2.7358C13.274 2.5438 12.9487 2.4478 12.538 2.4478C12.1273 2.4478 11.802 2.5438 11.562 2.7358C11.322 2.92247 11.202 3.19447 11.202 3.5518C11.202 3.88247 11.3247 4.14647 11.57 4.3438C11.8153 4.54114 12.138 4.6398 12.538 4.6398C12.938 4.6398 13.2607 4.54114 13.506 4.3438C13.7513 4.14647 13.874 3.88247 13.874 3.5518ZM12.538 5.0718C12.1007 5.0718 11.7433 5.17047 11.466 5.3678C11.1887 5.56514 11.05 5.8638 11.05 6.2638C11.05 6.6478 11.1833 6.94914 11.45 7.1678C11.7167 7.38647 12.0793 7.4958 12.538 7.4958C12.9913 7.4958 13.3513 7.38647 13.618 7.1678C13.8847 6.9438 14.018 6.64247 14.018 6.2638C14.018 5.86914 13.8793 5.57314 13.602 5.3758C13.33 5.17314 12.9753 5.0718 12.538 5.0718Z" fill="white"/>
<path d="M17.9622 6.2718C18.0209 6.61847 18.1542 6.88514 18.3622 7.0718C18.5702 7.25847 18.8556 7.3518 19.2182 7.3518C19.7196 7.3518 20.0902 7.15714 20.3302 6.7678C20.5756 6.37314 20.6876 5.72247 20.6662 4.8158C20.5649 5.10914 20.3702 5.34114 20.0822 5.5118C19.7996 5.67714 19.4742 5.7598 19.1062 5.7598C18.5462 5.7598 18.0956 5.5918 17.7542 5.2558C17.4182 4.9198 17.2502 4.45314 17.2502 3.8558C17.2502 3.49847 17.3196 3.1758 17.4582 2.8878C17.5969 2.5998 17.8076 2.37314 18.0902 2.2078C18.3729 2.04247 18.7196 1.9598 19.1302 1.9598C19.8876 1.9598 20.4156 2.2078 20.7142 2.7038C21.0129 3.19447 21.1622 3.90114 21.1622 4.8238C21.1622 5.82114 21.0129 6.57047 20.7142 7.0718C20.4209 7.57314 19.9142 7.8238 19.1942 7.8238C18.6662 7.8238 18.2556 7.68247 17.9622 7.3998C17.6689 7.1118 17.4956 6.7358 17.4422 6.2718H17.9622ZM19.1942 5.2798C19.4449 5.2798 19.6742 5.22914 19.8822 5.1278C20.0956 5.02114 20.2662 4.86647 20.3942 4.6638C20.5222 4.46114 20.5862 4.21847 20.5862 3.9358C20.5862 3.49847 20.4609 3.13847 20.2102 2.8558C19.9649 2.57314 19.6102 2.4318 19.1462 2.4318C18.7356 2.4318 18.4049 2.5598 18.1542 2.8158C17.9089 3.0718 17.7862 3.41314 17.7862 3.8398C17.7862 4.2878 17.9089 4.6398 18.1542 4.8958C18.3996 5.1518 18.7462 5.2798 19.1942 5.2798Z" fill="white"/>
<line x1="1.33789" y1="12.5449" x2="21.8185" y2="12.5449" stroke="white"/>
<line x1="1.33789" y1="7.44238" x2="21.8185" y2="7.44238" stroke="white"/>
<line x1="1.35059" y1="22.7383" x2="1.35059" y2="2.33012" stroke="white"/>
<line x1="1.33789" y1="17.647" x2="21.8185" y2="17.647" stroke="white"/>
<line x1="1.33789" y1="2.34082" x2="21.8185" y2="2.34082" stroke="white"/>
<line x1="21.3184" y1="22.7383" x2="21.3184" y2="2.33012" stroke="white"/>
<line x1="1.33789" y1="22.7485" x2="21.8185" y2="22.7485" stroke="white"/>
<line x1="8.00684" y1="22.7383" x2="8.00684" y2="2.33012" stroke="white"/>
<line x1="14.6621" y1="22.7383" x2="14.6621" y2="2.33012" stroke="white"/>
</svg>
