<svg width="25" height="23" viewBox="0 0 25 23" fill="none" xmlns="http://www.w3.org/2000/svg">
<g clip-path="url(#clip0_222_482)">
<path d="M23.9282 19.1558V17.3224C23.9282 16.35 23.502 15.4173 22.7435 14.7297C21.985 14.0421 20.9561 13.6558 19.8834 13.6558H11.7938C10.7211 13.6558 9.69226 14.0421 8.93372 14.7297C8.17517 15.4173 7.74902 16.35 7.74902 17.3224V19.1558" stroke="white" stroke-width="2" stroke-linecap="round" stroke-linejoin="round"/>
<path d="M15.8397 10.6829C18.0736 10.6829 19.8845 9.04132 19.8845 7.01628C19.8845 4.99123 18.0736 3.34961 15.8397 3.34961C13.6058 3.34961 11.7949 4.99123 11.7949 7.01628C11.7949 9.04132 13.6058 10.6829 15.8397 10.6829Z" stroke="white" stroke-width="2" stroke-linecap="round" stroke-linejoin="round"/>
</g>
<defs>
<clipPath id="clip0_222_482">
<rect width="24.2688" height="22" fill="white" transform="translate(0.485352 0.599609)"/>
</clipPath>
</defs>
</svg>
