<svg width="29" height="25" viewBox="0 0 29 25" fill="none" xmlns="http://www.w3.org/2000/svg">
<path d="M14.5048 7.2334V23.7334M14.5048 7.2334C15.4348 3.61486 18.9474 1.76721 26.5952 1.7334C26.7175 1.73295 26.8386 1.75635 26.9517 1.80226C27.0647 1.84816 27.1674 1.91567 27.2539 2.00088C27.3403 2.08609 27.4088 2.18732 27.4554 2.29874C27.502 2.41016 27.5257 2.52957 27.5252 2.65007V19.1501C27.5252 19.3932 27.4273 19.6263 27.2528 19.7982C27.0784 19.9702 26.8419 20.0667 26.5952 20.0667C19.155 20.0667 16.2806 21.5454 14.5048 23.7334C12.7395 21.5563 9.85466 20.0667 2.41441 20.0667C1.84012 20.0667 1.48438 19.6055 1.48438 19.0395V2.65007C1.48392 2.52957 1.50766 2.41016 1.55424 2.29874C1.60081 2.18732 1.6693 2.08609 1.75575 2.00088C1.84221 1.91567 1.94492 1.84816 2.05796 1.80226C2.171 1.75635 2.29215 1.73295 2.41441 1.7334C10.0622 1.76721 13.5748 3.61486 14.5048 7.2334Z" stroke="white" stroke-width="2" stroke-linecap="round" stroke-linejoin="round"/>
</svg>
